<svg id="Layer_1" data-name="Layer 1" xmlns="http://www.w3.org/2000/svg" viewBox="0 0 278 278"><defs><style>.cls-1{fill:#fff;}.cls-2{fill:#57c9bb;}.cls-3{fill:#26a69a;}</style></defs><title>defaultUser</title><circle class="cls-1" cx="139" cy="139" r="139"/><path class="cls-2" d="M1268,469.93v5.54a4.51,4.51,0,0,1-1.25,3.12c-3.88,4.08-17.27,16.14-46.74,25,0,0-4.8,2.4-6,9.6s40.78,42,84,39.59V345.22s-43.19-3.6-49.19,38.39V411.2l-2.39,3.6s-4.8,15.59,9.59,27.59a110.22,110.22,0,0,0,9.58,19.32A15.1,15.1,0,0,1,1268,469.93Z" transform="translate(-1159 -310.01)"/><path class="cls-3" d="M1328,469.93v5.54a4.51,4.51,0,0,0,1.25,3.12c3.88,4.08,17.27,16.14,46.74,25,0,0,4.8,2.4,6,9.6s-40.78,42-84,39.59V345.22s43.19-3.6,49.19,38.39V411.2l2.39,3.6s4.8,15.59-9.59,27.59a110.22,110.22,0,0,1-9.58,19.32A15.1,15.1,0,0,0,1328,469.93Z" transform="translate(-1159 -310.01)"/></svg>