<svg xmlns="http://www.w3.org/2000/svg" viewBox="0 0 362.16 362.14"><defs><style>.cls-1{isolation:isolate;}.cls-2{fill:#fff;}.cls-3{fill:#00838f;}.cls-4{opacity:0.7;}.cls-5{opacity:0.4;mix-blend-mode:soft-light;}</style></defs><title>Forex Logo</title><g class="cls-1"><g id="Layer_1" data-name="Layer 1"><path class="cls-2" d="M738,273.49a67.39,67.39,0,0,0-67.38-67.38H445.32a69.49,69.49,0,0,0-69.51,69.49V500.89a67.37,67.37,0,0,0,67.38,67.36h227.4A67.39,67.39,0,0,0,738,500.89v-2.82a69.48,69.48,0,0,1-58.89,68.67c-.32,0-.6.1-.9.12q-3.46.35-7,.35H520.55L451.94,499c-.39-.14-.76-.27-1.13-.44A35.24,35.24,0,0,1,429,466.05V427.19a35.12,35.12,0,0,1,35.14-35.11h.23A34.8,34.8,0,0,1,487,400.62c.67.55,1.3,1.13,1.9,1.73a35.09,35.09,0,0,1,9.77,18.94,33.8,33.8,0,0,1,.51,5.9v38.86a35.1,35.1,0,0,1-34.84,35.12h-.25a34.92,34.92,0,0,1-8.45-1,34,34,0,0,0,9.42,1.3,35.11,35.11,0,0,0,35.11-35.12V427.47a32.78,32.78,0,0,0-.51-5.9,35,35,0,0,0-9.77-18.94L504.3,417l14.79,14.79,2.2,2.2V367.26a35.13,35.13,0,0,1,35.14-35.11h.23a34.83,34.83,0,0,1,22.66,8.52,5.51,5.51,0,0,1,.67.6l.44.39c.28.23.53.51.79.77l.78.81.37.41a34.7,34.7,0,0,1,8.22,15.77,33.71,33.71,0,0,1,.9,7.84v98.79a35.08,35.08,0,0,1-34.9,35.12h-.51a34.84,34.84,0,0,1-8.43-1.11,34.49,34.49,0,0,0,9.42,1.39h.33a35.11,35.11,0,0,0,35.09-35.12V367.54a33.86,33.86,0,0,0-.9-7.85,35.25,35.25,0,0,0-8.22-15.76l12,12,18.2,18.19V307.33a35.13,35.13,0,0,1,35.13-35.11h.49c.37,0,.72,0,1.06,0a35,35,0,0,1,20.33,7.64,30.52,30.52,0,0,1,2.34,2,6.64,6.64,0,0,1,.6.58c.16.16.34.32.51.51a35,35,0,0,1,9.76,24.32V466.05a35.08,35.08,0,0,1-35,35.12h-.49a36.7,36.7,0,0,1-8.45-1.11,36.82,36.82,0,0,0,9.45,1.39h.37a35.11,35.11,0,0,0,35.11-35.12V307.61A35,35,0,0,0,675,283.28l63,62.62Z" transform="translate(-375.81 -206.11)"/><path class="cls-3" d="M499.19,421.3a32.78,32.78,0,0,1,.51,5.9v38.86a35.09,35.09,0,0,1-64.48,19.21,34.66,34.66,0,0,1-5.74-19.21V427.2a35.09,35.09,0,0,1,58-26.57c.67.55,1.29,1.13,1.9,1.73A35,35,0,0,1,499.19,421.3Z" transform="translate(-375.81 -206.11)"/><path class="cls-3" d="M591.09,359.42a33.86,33.86,0,0,1,.9,7.85v98.79a35.11,35.11,0,0,1-35.09,35.12h-.32a35.12,35.12,0,0,1-34.79-35.12V367.27a35.11,35.11,0,0,1,58-26.6c.23.19.46.4.67.61l.41.39c.28.23.56.51.81.76s.51.54.77.81l.39.42A34.81,34.81,0,0,1,591.09,359.42Z" transform="translate(-375.81 -206.11)"/><path class="cls-3" d="M684.3,307.34V466.06a35.11,35.11,0,0,1-35.11,35.12h-.37a35.12,35.12,0,0,1-34.75-35.12V307.34a35.12,35.12,0,0,1,57-27.45c.81.65,1.59,1.32,2.33,2a8.28,8.28,0,0,1,.6.58c.17.16.33.32.49.5A35,35,0,0,1,684.3,307.34Z" transform="translate(-375.81 -206.11)"/><g class="cls-4"><path class="cls-2" d="M520.75,566.71l-66.93-66.55,1,.27a3.76,3.76,0,0,0,.78.21,34.51,34.51,0,0,0,9.51,1.31,35.65,35.65,0,0,0,35.61-35.62V427.47a33.06,33.06,0,0,0-.52-6,35.11,35.11,0,0,0-4.69-12.59l8.45,8.45,16.85,16.84v31.87a35.71,35.71,0,0,0,25.78,34.21,7.1,7.1,0,0,0,1,.29,34.91,34.91,0,0,0,9.52,1.4h.33A35.65,35.65,0,0,0,593,466.33V367.54a34.21,34.21,0,0,0-.92-8,35.44,35.44,0,0,0-4.25-10.5l7.21,7.19,18.05,18.05v91.73a35.59,35.59,0,0,0,26.67,34.49,36.84,36.84,0,0,0,9.56,1.41h.38a35.66,35.66,0,0,0,35.61-35.62V307.61A35.46,35.46,0,0,0,680.08,289l57.39,57.08v152A69,69,0,0,1,679,566.25l-.17,0-.7.08c-2.3.23-4.63.35-6.93.35Z" transform="translate(-375.81 -206.11)"/><path class="cls-2" d="M682.18,291.83,737,346.31V498.07a68.47,68.47,0,0,1-58,67.68l-.2,0a6.57,6.57,0,0,1-.66.09c-2.27.22-4.58.34-6.87.34H521l-65.43-65.06a35.19,35.19,0,0,0,9.56,1.3,36.15,36.15,0,0,0,36.11-36.12V427.47a34.91,34.91,0,0,0-.52-6.07,35.79,35.79,0,0,0-3.09-9.7l6,6,14.79,14.79,1.91,1.91v31.66a36.2,36.2,0,0,0,26.11,34.68,7,7,0,0,0,1,.3,35.39,35.39,0,0,0,9.66,1.42h.33a36.14,36.14,0,0,0,36.09-36.12V367.54a34.61,34.61,0,0,0-.93-8.07,35.89,35.89,0,0,0-2.67-7.62l4.79,4.78,17.9,17.9v91.52a36.09,36.09,0,0,0,27,35,37.58,37.58,0,0,0,9.72,1.43h.37a36.15,36.15,0,0,0,36.11-36.12V307.61a36,36,0,0,0-3.62-15.78M675,283.28a35,35,0,0,1,9.79,24.33V466.33a35.11,35.11,0,0,1-35.11,35.12h-.37a36.82,36.82,0,0,1-9.45-1.39,35.1,35.1,0,0,1-26.29-34V374.11l-18.2-18.19-12-12a35.3,35.3,0,0,1,8.22,15.76,33.86,33.86,0,0,1,.9,7.85v98.79a35.11,35.11,0,0,1-35.09,35.12h-.33a34.49,34.49,0,0,1-9.42-1.39,7.25,7.25,0,0,1-.95-.28,35.09,35.09,0,0,1-25.41-33.73V434l-2.2-2.2L504.3,417l-14.38-14.35a35,35,0,0,1,9.77,18.94,32.78,32.78,0,0,1,.51,5.9v38.86a35.11,35.11,0,0,1-35.11,35.12,34,34,0,0,1-9.42-1.3,4.23,4.23,0,0,1-.74-.21,25.36,25.36,0,0,1-3-.95l68.61,68.22H671.21q3.51,0,7-.35c.3,0,.58-.07.9-.12A69.48,69.48,0,0,0,738,498.07V345.9l-63-62.62Z" transform="translate(-375.81 -206.11)"/></g><path class="cls-5" d="M451.78,498.83c1,.42,2.08.79,3.15,1.11a25.36,25.36,0,0,1-3-.95Z" transform="translate(-375.81 -206.11)"/><path class="cls-5" d="M540,496.82a33.3,33.3,0,0,0,6.71,3,35.09,35.09,0,0,1-25.41-33.73V434l1,1v31.36A35.08,35.08,0,0,0,539,496.26C539.34,496.45,539.67,496.66,540,496.82Z" transform="translate(-375.81 -206.11)"/><path class="cls-5" d="M639.87,500.06a35.1,35.1,0,0,1-26.29-34V374.11l.48.49.51.51v91.22a35.14,35.14,0,0,0,16.71,29.93c.79.46,1.6.93,2.43,1.34A33.69,33.69,0,0,0,639.87,500.06Z" transform="translate(-375.81 -206.11)"/></g></g></svg>