<svg id="Layer_1" data-name="Layer 1" xmlns="http://www.w3.org/2000/svg" viewBox="0 0 1016.23 220.04"><defs><style>.cls-1{fill:#fff;}</style></defs><title>ForexType</title><path class="cls-1" d="M107,692.56V725.9h67.3v50.5H107v73.4H48.78V640.35H182.07v52.21Z" transform="translate(-48.78 -635.06)"/><path class="cls-1" d="M199.7,745.08c0-64,48.05-110,115.38-110,67.16,0,115,45.83,115,110s-47.87,110-115,110C247.75,855.1,199.7,809.09,199.7,745.08Zm115.38,56.33c31.88,0,54.95-23.55,54.95-56.33S347,688.76,315.08,688.76s-55.3,23.72-55.3,56.32,23.42,56.32,55.3,56.32Z" transform="translate(-48.78 -635.06)"/><path class="cls-1" d="M750,787c10.33,11.42,25.7,17.72,44.45,17.72a86.47,86.47,0,0,0,29.85-5.1v45.43a111.14,111.14,0,0,1-34,5.06c-45.56,0-81.58-24.45-96.84-62.52H655.28l8.63-34.24h21.91c-.19-2.78-.28-5.61-.28-8.47q0-3.24.16-6.42h-30l8.63-34.36h28.51c15.23-39.7,52.68-65,97.37-65a127.33,127.33,0,0,1,45.13,8.5l-11.1,43c-8.16-3.33-20.45-5.52-30.6-5.52-18.68,0-34.38,7.19-44.73,19.61H820l-8.68,33.73H735.76q-.25,3.15-.26,6.42a83.11,83.11,0,0,0,.42,8.47h71.65l-8.68,33.73L750,787Z" transform="translate(-48.78 -635.06)"/><path class="cls-1" d="M510.29,766.19c27.23,24.38,56.9,56.08,86.15,87.77H556.62c-26-26.81-52-55.66-84.53-85.33V743.42h20.32c35.76,0,54.86-12.19,58.1-30.87H472.09v-18.7h77.2c-5.69-15-23.17-24-52-24H472.09V644.25h152.4V663h-56.1c9,7.33,15.06,17.48,17.08,30.89h39.42v18.7h-39C581.4,744.64,553,764.17,510.29,766.19Z" transform="translate(-48.78 -635.06)"/><path class="cls-1" d="M999.67,849.8l-34.45-64.34L930.38,849.8H864.92l63-109L868.43,640.35h65.08l31.41,59.26,31.66-59.26h64.22L1002,741.82l63,108Z" transform="translate(-48.78 -635.06)"/></svg>