<svg xmlns="http://www.w3.org/2000/svg" viewBox="0 0 1016.23 752"><defs><style>.cls-1{isolation:isolate;}.cls-2{font-size:40.63px;font-family:Mont-ExtraLightDEMO, Mont;letter-spacing:1.26em;}.cls-2,.cls-4{fill:#157e73;}.cls-3{fill:#00a591;}.cls-5{fill:#fff;}.cls-6{opacity:0.7;}.cls-7{opacity:0.4;mix-blend-mode:soft-light;}</style></defs><title>Center</title><g class="cls-1"><g id="Layer_1" data-name="Layer 1"><text class="cls-2" transform="translate(244.69 742.49)">NETTING</text><path class="cls-3" d="M90,655.36V688.7h67.3v50.5H90v73.39H31.78V603.15H165.07v52.21Z" transform="translate(-31.78 -168.91)"/><path class="cls-3" d="M182.7,707.88c0-64,48.05-110,115.38-110,67.16,0,115,45.83,115,110s-47.87,110-115,110C230.75,817.89,182.7,771.89,182.7,707.88Zm115.38,56.33c31.88,0,54.95-23.55,54.95-56.33S330,651.55,298.08,651.55s-55.3,23.72-55.3,56.33,23.42,56.32,55.3,56.32Z" transform="translate(-31.78 -168.91)"/><path class="cls-4" d="M733,749.81c10.33,11.42,25.7,17.72,44.45,17.72a86.47,86.47,0,0,0,29.85-5.1v45.43a111.45,111.45,0,0,1-34,5.06c-45.56,0-81.58-24.45-96.84-62.53H638.28l8.63-34.23h21.91c-.19-2.78-.28-5.61-.28-8.47q0-3.26.16-6.42h-30l8.63-34.37h28.51c15.23-39.69,52.68-65,97.37-65a127.33,127.33,0,0,1,45.13,8.5l-11.1,43c-8.16-3.34-20.45-5.52-30.6-5.52-18.68,0-34.38,7.19-44.73,19.61H803l-8.68,33.73H718.76q-.25,3.13-.26,6.42a83.11,83.11,0,0,0,.42,8.47h71.65l-8.68,33.73L733,749.81Z" transform="translate(-31.78 -168.91)"/><path class="cls-4" d="M493.29,729c27.23,24.39,56.9,56.08,86.15,87.78H539.62c-26-26.81-52-55.66-84.53-85.33V706.22h20.32c35.76,0,54.86-12.19,58.1-30.87H455.09v-18.7h77.2c-5.69-15-23.17-24-52-24H455.09V607.05h152.4v18.7h-56.1c9,7.33,15.06,17.48,17.08,30.9h39.42v18.7h-39C564.4,707.44,536,727,493.29,729Z" transform="translate(-31.78 -168.91)"/><path class="cls-3" d="M982.67,812.59l-34.45-64.33-34.84,64.33H847.92l63-109L851.43,603.15h65.08l31.41,59.26,31.66-59.26h64.22L985,704.62l63,108Z" transform="translate(-31.78 -168.91)"/><path class="cls-5" d="M721,236.29a67.39,67.39,0,0,0-67.38-67.38H428.32a69.49,69.49,0,0,0-69.51,69.49V463.69a67.37,67.37,0,0,0,67.38,67.36h227.4A67.39,67.39,0,0,0,721,463.69v-2.83a69.49,69.49,0,0,1-58.89,68.68l-.9.12q-3.46.35-7,.34H503.55l-68.61-68.21c-.39-.14-.76-.28-1.13-.44A35.26,35.26,0,0,1,412,428.85V390a35.13,35.13,0,0,1,35.14-35.12h.23A34.9,34.9,0,0,1,470,363.41c.67.56,1.3,1.14,1.9,1.74a35.09,35.09,0,0,1,9.77,18.94,33.72,33.72,0,0,1,.51,5.9v38.86A35.1,35.1,0,0,1,447.37,464h-.25a34.92,34.92,0,0,1-8.45-1,34.34,34.34,0,0,0,9.42,1.29,35.1,35.1,0,0,0,35.11-35.11V390.27a32.89,32.89,0,0,0-.51-5.91,34.93,34.93,0,0,0-9.77-18.93l14.38,14.35,14.79,14.79,2.2,2.2V330.06A35.12,35.12,0,0,1,539.43,295h.23a34.88,34.88,0,0,1,22.66,8.51,6.57,6.57,0,0,1,.67.61l.44.39c.28.23.53.51.79.76s.51.54.78.81l.37.42a34.66,34.66,0,0,1,8.22,15.76,33.86,33.86,0,0,1,.9,7.85v98.79A35.09,35.09,0,0,1,539.59,464h-.51a35.34,35.34,0,0,1-8.43-1.11,34.49,34.49,0,0,0,9.42,1.38h.33a35.1,35.1,0,0,0,35.09-35.11V330.34a33.8,33.8,0,0,0-.9-7.85,35.25,35.25,0,0,0-8.22-15.76l12,12,18.2,18.19V270.13A35.12,35.12,0,0,1,631.71,235h.49c.37,0,.72,0,1.06,0a35,35,0,0,1,20.33,7.64,30.52,30.52,0,0,1,2.34,2,6.64,6.64,0,0,1,.6.58c.16.16.34.32.51.5a35,35,0,0,1,9.76,24.33V428.85a35.08,35.08,0,0,1-35,35.12h-.49a36.7,36.7,0,0,1-8.45-1.11,36.39,36.39,0,0,0,9.45,1.38h.37a35.1,35.1,0,0,0,35.11-35.11V270.41A35,35,0,0,0,658,246.08l63,62.62Z" transform="translate(-31.78 -168.91)"/><path class="cls-4" d="M482.19,384.09a32.89,32.89,0,0,1,.51,5.91v38.86a35.09,35.09,0,0,1-64.48,19.21,34.69,34.69,0,0,1-5.74-19.21V390a35.1,35.1,0,0,1,58-26.58c.67.56,1.29,1.14,1.9,1.74A35,35,0,0,1,482.19,384.09Z" transform="translate(-31.78 -168.91)"/><path class="cls-4" d="M574.09,322.22a33.8,33.8,0,0,1,.9,7.85v98.79A35.1,35.1,0,0,1,539.9,464h-.32a35.11,35.11,0,0,1-34.79-35.11V330.07a35.1,35.1,0,0,1,58-26.6c.23.19.46.4.67.6l.41.4c.28.23.56.51.81.76s.51.53.77.81l.39.42A34.76,34.76,0,0,1,574.09,322.22Z" transform="translate(-31.78 -168.91)"/><path class="cls-4" d="M667.3,270.14V428.86A35.1,35.1,0,0,1,632.19,464h-.37a35.1,35.1,0,0,1-34.75-35.11V270.14a35.12,35.12,0,0,1,57-27.45c.81.65,1.59,1.32,2.33,2,.21.19.42.4.6.58s.33.33.49.51A35,35,0,0,1,667.3,270.14Z" transform="translate(-31.78 -168.91)"/><g class="cls-6"><path class="cls-5" d="M503.75,529.5,436.82,463l1,.26a3.89,3.89,0,0,0,.78.22,34.51,34.51,0,0,0,9.51,1.3,35.64,35.64,0,0,0,35.61-35.61V390.27a33.25,33.25,0,0,0-.52-6,35.13,35.13,0,0,0-4.69-12.58l8.45,8.44L503.79,397v31.87a35.72,35.72,0,0,0,25.78,34.21,7.65,7.65,0,0,0,1,.28,34.21,34.21,0,0,0,9.52,1.4h.33A35.64,35.64,0,0,0,576,429.13V330.34a34.29,34.29,0,0,0-.92-8,35.66,35.66,0,0,0-4.25-10.5l7.21,7.2,18.05,18.05v91.73a35.59,35.59,0,0,0,26.67,34.49,36.77,36.77,0,0,0,9.56,1.4h.38a35.65,35.65,0,0,0,35.61-35.61V270.41a35.46,35.46,0,0,0-5.22-18.58l57.39,57.07v152A69,69,0,0,1,662,529.05l-.21,0-.66.08c-2.29.23-4.62.34-6.93.34Z" transform="translate(-31.78 -168.91)"/><path class="cls-5" d="M665.18,254.62,720,309.11V460.86a68.49,68.49,0,0,1-58,67.69l-.2,0-.66.08a68.4,68.4,0,0,1-6.87.34H504L438.53,464a35.18,35.18,0,0,0,9.56,1.29,36.15,36.15,0,0,0,36.11-36.11V390.27a34.82,34.82,0,0,0-.52-6.07,35.68,35.68,0,0,0-3.09-9.7l6,6,14.79,14.79,1.91,1.9v31.67a36.2,36.2,0,0,0,26.11,34.68,8.38,8.38,0,0,0,1,.29,35,35,0,0,0,9.66,1.42h.33a36.14,36.14,0,0,0,36.09-36.11V330.34a34.55,34.55,0,0,0-.93-8.07,35.89,35.89,0,0,0-2.67-7.62l4.79,4.77,17.9,17.91v91.52a36.09,36.09,0,0,0,27,35,37.14,37.14,0,0,0,9.72,1.42h.37a36.15,36.15,0,0,0,36.11-36.11V270.41a36,36,0,0,0-3.62-15.79M658,246.08a35,35,0,0,1,9.79,24.33V429.13a35.1,35.1,0,0,1-35.11,35.11h-.37a36,36,0,0,1-9.45-1.39,35.09,35.09,0,0,1-26.29-34V336.91l-18.2-18.19-12-12a35.25,35.25,0,0,1,8.22,15.76,33.8,33.8,0,0,1,.9,7.85v98.79a35.1,35.1,0,0,1-35.09,35.11h-.33a34.11,34.11,0,0,1-9.42-1.39,7.17,7.17,0,0,1-.95-.27,35.09,35.09,0,0,1-25.41-33.73V396.77l-2.2-2.2L487.3,379.78l-14.38-14.35a34.93,34.93,0,0,1,9.77,18.93,32.89,32.89,0,0,1,.51,5.91v38.86a35.1,35.1,0,0,1-35.11,35.11,34.34,34.34,0,0,1-9.42-1.29,4.23,4.23,0,0,1-.74-.21,27.37,27.37,0,0,1-3-.95L503.55,530H654.21q3.51,0,7-.34l.9-.12A69.49,69.49,0,0,0,721,460.86V308.7l-63-62.62Z" transform="translate(-31.78 -168.91)"/></g><path class="cls-7" d="M434.78,461.63c1,.41,2.08.79,3.15,1.11a27.37,27.37,0,0,1-3-.95Z" transform="translate(-31.78 -168.91)"/><path class="cls-7" d="M523,459.61a32.78,32.78,0,0,0,6.71,3,35.09,35.09,0,0,1-25.41-33.73V396.77l1,1v31.36A35.08,35.08,0,0,0,522,459.06C522.34,459.24,522.67,459.45,523,459.61Z" transform="translate(-31.78 -168.91)"/><path class="cls-7" d="M622.87,462.86a35.11,35.11,0,0,1-26.29-34V336.91l.48.49.51.51v91.22a35.14,35.14,0,0,0,16.71,29.93c.79.46,1.6.92,2.43,1.34A33.69,33.69,0,0,0,622.87,462.86Z" transform="translate(-31.78 -168.91)"/></g></g></svg>