<svg xmlns="http://www.w3.org/2000/svg" xmlns:xlink="http://www.w3.org/1999/xlink" viewBox="0 0 868.45 466.27"><defs><style>.cls-1{isolation:isolate;}.cls-2{fill:#fff;}.cls-3{fill:#989999;}.cls-4{fill:url(#linear-gradient);}.cls-5{fill:url(#linear-gradient-2);}.cls-6{fill:url(#linear-gradient-3);}.cls-7{fill:url(#linear-gradient-4);}.cls-8{fill:url(#linear-gradient-5);}.cls-9{fill:url(#linear-gradient-6);}.cls-10{fill:url(#linear-gradient-7);}.cls-11{fill:url(#linear-gradient-8);}.cls-12{opacity:0.47;}.cls-13{fill:#babcbe;}.cls-14{font-size:26.75px;font-family:Mont-ExtraLightDEMO, Mont;}.cls-15{letter-spacing:-0.05em;}.cls-16{letter-spacing:-0.01em;}.cls-17{letter-spacing:-0.03em;}.cls-18{letter-spacing:0em;}.cls-19{letter-spacing:-0.03em;}.cls-20{fill:#b6b3b5;}.cls-21{fill:#969696;}.cls-22{fill:#554a64;}.cls-23{fill:url(#linear-gradient-9);}.cls-24{fill-rule:evenodd;mix-blend-mode:overlay;}.cls-25{fill:#cb2228;}.cls-26{fill:#6fb353;}.cls-27{opacity:0.1;}</style><linearGradient id="linear-gradient" x1="938.04" y1="-6.86" x2="978.78" y2="-6.86" gradientTransform="translate(-791.67 174.94)" gradientUnits="userSpaceOnUse"><stop offset="0.05" stop-color="#ff1f2c"/><stop offset="0.22" stop-color="#f51c29"/><stop offset="0.51" stop-color="#d9131f"/><stop offset="0.88" stop-color="#ac0510"/><stop offset="1" stop-color="#9c000b"/></linearGradient><linearGradient id="linear-gradient-2" x1="983.91" y1="-6.41" x2="1023.26" y2="-6.41" xlink:href="#linear-gradient"/><linearGradient id="linear-gradient-3" x1="1029.18" y1="-6.86" x2="1069.91" y2="-6.86" xlink:href="#linear-gradient"/><linearGradient id="linear-gradient-4" x1="1094.2" y1="-6.41" x2="1130.02" y2="-6.41" xlink:href="#linear-gradient"/><linearGradient id="linear-gradient-5" x1="1136.36" y1="-6.41" x2="1177.74" y2="-6.41" xlink:href="#linear-gradient"/><linearGradient id="linear-gradient-6" x1="1184.52" y1="-6.41" x2="1225.9" y2="-6.41" xlink:href="#linear-gradient"/><linearGradient id="linear-gradient-7" x1="1230.21" y1="-6.41" x2="1272.98" y2="-6.41" xlink:href="#linear-gradient"/><linearGradient id="linear-gradient-8" x1="1282" y1="-6.41" x2="1323.38" y2="-6.41" xlink:href="#linear-gradient"/><linearGradient id="linear-gradient-9" x1="1343.73" y1="100.61" x2="1343.73" y2="258.7" gradientTransform="matrix(-1, 0, 0, 1, 1999.45, -33.24)" xlink:href="#linear-gradient"/></defs><title>ForexErrorv1</title><g class="cls-1"><g id="Layer_1" data-name="Layer 1"><rect class="cls-2" x="0.5" y="0.5" width="867.45" height="465.27"/><path class="cls-3" d="M956.23,34.24V498.51H89.77V34.24H956.23m1-1H88.77V499.51H957.23V33.24Z" transform="translate(-88.77 -33.24)"/><path class="cls-4" d="M166.43,138.17H180.5v35.9h6.6v10.06h-6.6V198H167.56V184.13H146.37V174.07Zm2.16,36.59V150.51l-13.07,24.25Z" transform="translate(-88.77 -33.24)"/><path class="cls-5" d="M231.59,167.82q0,16-4.59,23.51t-15.08,7.55q-10.84,0-15.26-7.83t-4.42-21.77q0-16,4.59-23.58t15.09-7.53q10.83,0,15.25,7.83T231.59,167.82Zm-13.63.71q0-13.4-1.22-17.17c-.8-2.52-2.41-3.78-4.8-3.78a4.79,4.79,0,0,0-4.66,3.19q-1.41,3.21-1.41,17.76,0,14.39,1.37,17.66a5,5,0,0,0,9.31.2Q218,183.3,218,168.53Z" transform="translate(-88.77 -33.24)"/><path class="cls-6" d="M257.57,138.17h14.07v35.9h6.6v10.06h-6.6V198H258.69V184.13H237.5V174.07Zm2.16,36.59V150.51l-13.08,24.25Z" transform="translate(-88.77 -33.24)"/><path class="cls-7" d="M302.53,139.08h35.82v10.09H315.48v13.68h17.77V173H315.48v14.5h22.87V198H302.53Z" transform="translate(-88.77 -33.24)"/><path class="cls-8" d="M344.69,139.08H363.2a52,52,0,0,1,8.26.49,13.91,13.91,0,0,1,5.81,2.68,14.49,14.49,0,0,1,4.59,5.95,20.83,20.83,0,0,1,1.67,8.48q0,11.06-8.29,15.54L386.07,198H372l-7.88-23.3h-6.46V198H344.69Zm12.95,9.53v16.53h5.69q7.59,0,7.6-8.5a9.23,9.23,0,0,0-1.13-4.81,6,6,0,0,0-2.61-2.55,11.21,11.21,0,0,0-4.38-.67Z" transform="translate(-88.77 -33.24)"/><path class="cls-9" d="M392.85,139.08h18.51a52.09,52.09,0,0,1,8.26.49,13.87,13.87,0,0,1,5.8,2.68,14.51,14.51,0,0,1,4.6,5.95,20.83,20.83,0,0,1,1.66,8.48q0,11.06-8.28,15.54L434.23,198H420.14l-7.88-23.3h-6.47V198H392.85Zm12.94,9.53v16.53h5.7q7.59,0,7.59-8.5a9.23,9.23,0,0,0-1.12-4.81,6.1,6.1,0,0,0-2.61-2.55,11.21,11.21,0,0,0-4.38-.67Z" transform="translate(-88.77 -33.24)"/><path class="cls-10" d="M481.3,168.51q0,30.38-21.35,30.37-10.62,0-16-7.74t-5.4-22.63q0-30.34,21.36-30.34,10.44,0,15.92,7.6T481.3,168.51Zm-13.63,0q0-11.91-1.86-15.86a6.36,6.36,0,0,0-11.78,0q-1.84,4-1.85,15.84,0,11.64,1.83,15.75c1.22,2.73,3.19,4.1,5.89,4.1a6.18,6.18,0,0,0,5.89-3.93Q467.67,180.5,467.67,168.51Z" transform="translate(-88.77 -33.24)"/><path class="cls-11" d="M490.32,139.08h18.51a52.15,52.15,0,0,1,8.27.49,13.87,13.87,0,0,1,5.8,2.68,14.51,14.51,0,0,1,4.6,5.95,21,21,0,0,1,1.66,8.48q0,11.06-8.29,15.54L531.7,198H517.62l-7.88-23.3h-6.47V198H490.32Zm12.95,9.53v16.53H509q7.6,0,7.6-8.5a9.33,9.33,0,0,0-1.12-4.81,6.1,6.1,0,0,0-2.61-2.55,11.28,11.28,0,0,0-4.38-.67Z" transform="translate(-88.77 -33.24)"/><g class="cls-12"><rect class="cls-13" x="26.18" y="453.46" width="813.49" height="1.06"/></g><text class="cls-14" transform="translate(118.16 219.79)"><tspan class="cls-15">L</tspan><tspan x="12.09" y="0">O</tspan><tspan class="cls-16" x="34.37" y="0">S</tspan><tspan class="cls-17" x="49.69" y="0">T</tspan><tspan class="cls-18" x="63.09" y="0" xml:space="preserve"> IN</tspan><tspan class="cls-17" x="97.17" y="0"> </tspan><tspan class="cls-18" x="103.82" y="0">THE MARKE</tspan><tspan class="cls-19" x="250.55" y="0">T</tspan></text><rect class="cls-20" x="628.87" y="250.08" width="48.59" height="38.19"/><rect class="cls-21" x="628.87" y="243.26" width="48.59" height="6.69"/><path class="cls-22" d="M773.17,147" transform="translate(-88.77 -33.24)"/><path class="cls-22" d="M883.24,113.84V277.36a6,6,0,0,1-6,5.95H611.8a5.87,5.87,0,0,1-2.26-.44,6,6,0,0,1-3.08-2.89,5.91,5.91,0,0,1-.62-2.62V113.84a5.91,5.91,0,0,1,.62-2.62,6,6,0,0,1,5.34-3.34H877.28a5.9,5.9,0,0,1,3.47,1.13h0a5.08,5.08,0,0,1,.51.41l.1.11.21.2.1.1a5.43,5.43,0,0,1,.42.53A5.85,5.85,0,0,1,883.24,113.84Z" transform="translate(-88.77 -33.24)"/><path class="cls-22" d="M764.45,121" transform="translate(-88.77 -33.24)"/><path class="cls-22" d="M736.85,121.66" transform="translate(-88.77 -33.24)"/><path class="cls-20" d="M883.24,269.67v9.2a4.44,4.44,0,0,1-4.44,4.44H610.29a4.05,4.05,0,0,1-1.06-.13,4.46,4.46,0,0,1-3.39-4.31v-9.2Z" transform="translate(-88.77 -33.24)"/><path class="cls-2" d="M744.88,151.94" transform="translate(-88.77 -33.24)"/><path class="cls-2" d="M735,121H621.81A4.83,4.83,0,0,0,617,125.8V251.46a4.82,4.82,0,0,0,4.81,4.81H867.27a4.83,4.83,0,0,0,4.82-4.81V125.8a4.83,4.83,0,0,0-4.82-4.81H735Z" transform="translate(-88.77 -33.24)"/><rect class="cls-23" x="528.11" y="87.75" width="255.2" height="136.2" rx="4.68" ry="4.68"/><path class="cls-24" d="M617.69,223.07l1.22.13a.67.67,0,0,0,.64-.29c1.41-2.13,2.8-4.21,4.25-6.39a.67.67,0,0,1,1-.14c1.06.91,2,1.72,2.92,2.54a4.39,4.39,0,0,1,1.09,1.12c1,2.06,1.8,4.12,2.7,6.18.52,1.21,1.06,2.41,1.63,3.7a.67.67,0,0,0,.94.32l3.67-2a.68.68,0,0,1,.77.1l4,3.73a.65.65,0,0,0,.58.17c2.67-.5,5.36-.92,5.64-2.32.07-.33.51-.65.76-1,1.09-1.43,2.58-2.83,3.19-4.3a88.42,88.42,0,0,0,3.59-10.49c.51-1.87,1.74-3.55,5.07-4.93a1.6,1.6,0,0,0,.77-.6c.64-1.07,1.2-2.14,1.81-3.2s1.26-2.23,1.9-3.34a.67.67,0,0,1,1.21.08l3.76,9.09a.69.69,0,0,0,1,.32l.19-.12c1.11-.75,2.32-1.47,3.29-2.24a3.15,3.15,0,0,1,2.83-.41c.76.14,1.61.21,2.5.3a.64.64,0,0,0,.58-.23c1.48-1.74,3-3.45,4.34-5.16a10.42,10.42,0,0,0,1.16-2.14c2-4,3.79-8,7.9-11.81a1.56,1.56,0,0,1,.82-.5c1.19-.23,2.44-.39,3.72-.58a.67.67,0,0,1,.57.19l4.47,4.34a.67.67,0,0,0,.66.16c1.42-.42,2.7-.84,4.08-1.18s3.06-.65,4.64-1a.67.67,0,0,1,.46.08l4.1,2.31a.67.67,0,0,0,.83-.13l3.08-3.33c1.26-1.38,1.26-1.4,5-1.32a2.3,2.3,0,0,0,1.57-.37c.84-.62,1.9-1.21,2.61-1.86,1-.93,2.7-1.48,5.17-1.74a3.68,3.68,0,0,1,2,.19c1.06.45,2.19.88,3.41,1.36a.68.68,0,0,0,.81-.26l1.68-2.49c1.49-2.23,2.57-4.54,6.51-6.38a13.4,13.4,0,0,1,2.35-1c2.71-.7,4.24-1.65,5-2.88a22.77,22.77,0,0,1,2.27-2.79c0-.07.11-.13.17-.2a.67.67,0,0,1,1,0,57.92,57.92,0,0,0,8.78,9.25.67.67,0,0,0,.49.15c1.07-.11,2.19-.24,3.32-.3a3.72,3.72,0,0,1,1.51.23c1.26.71,2.2,1.51,3.62,2.16,1.6.73,3.58,1.34,5.59,2.08.16-.24.22-.31.26-.38,1.44-2.88,2.91-5.75,4.3-8.63.16-.35.52-.52,1.31-.58,2.33-.17,4.65-.36,7-.48.89,0,1.39-.13,1.56-.52a11.51,11.51,0,0,1,1.06-1.73c1.8-2.64,2.86-5.35,6.26-7.81a12.21,12.21,0,0,1,5.8-2.41,2.17,2.17,0,0,0,1.18-.57c1.38-1.64,2.69-3.28,4-4.93.23-.3.54-.49,1.46-.52a36.71,36.71,0,0,0,7.34-1,3.73,3.73,0,0,0,1.34-.54c1.22-.94,2.36-1.89,3.61-2.92a.7.7,0,0,1,.9,0l.2.2c1.3,1.43,2.57,2.85,3.93,4.27a2.35,2.35,0,0,0,1.23.44,39.52,39.52,0,0,0,7.92-.11,2.14,2.14,0,0,0,1-.37c.92-.86,1.74-1.75,2.62-2.62.5-.51,1-1,1.55-1.54a.75.75,0,0,1,.54-.19c1.06.1,2,.17,2.94.29a2.79,2.79,0,0,0,2.13-.31c1.09-.71,2.28-1.4,3.53-2.14a.66.66,0,0,1,.89.18h0l4,6.06c.08.12.12.32.33.36,1.41.26,2.86.49,4.34.74a.68.68,0,0,0,.69-.31l.74-1.22a.68.68,0,0,1,1.25.37v98.48a3.56,3.56,0,0,1-3.54,3.58H621.54a4.62,4.62,0,0,1-4.6-4.65v-28.8A.67.67,0,0,1,617.69,223.07Z" transform="translate(-88.77 -33.24)"/><rect class="cls-25" x="86.36" y="400.26" width="4.39" height="45.95"/><rect class="cls-26" x="77.74" y="413.78" width="4.39" height="32.43"/><rect class="cls-26" x="94.99" y="413.95" width="4.39" height="32.26"/><rect class="cls-25" x="34.6" y="416.64" width="4.39" height="29.56"/><rect class="cls-25" x="60.48" y="428.2" width="4.39" height="18"/><rect class="cls-25" x="51.86" y="433.5" width="4.39" height="12.7"/><rect class="cls-26" x="43.23" y="433.5" width="4.39" height="12.7"/><rect class="cls-26" x="69.11" y="423.04" width="4.39" height="23.17"/><rect class="cls-26" x="103.62" y="410.61" width="4.39" height="35.6"/><rect class="cls-25" x="112.24" y="405.71" width="4.39" height="40.49"/><rect class="cls-26" x="120.87" y="410.61" width="4.39" height="35.6"/><rect class="cls-26" x="129.5" y="392.57" width="4.39" height="53.63"/><rect class="cls-25" x="138.12" y="396.15" width="4.39" height="50.06"/><rect class="cls-25" x="146.75" y="405.23" width="4.39" height="40.97"/><rect class="cls-26" x="155.37" y="415.58" width="4.39" height="30.63"/><rect class="cls-25" x="164" y="415.58" width="4.39" height="30.63"/><rect class="cls-26" x="578.07" y="429.8" width="4.39" height="16.4"/><rect class="cls-26" x="569.44" y="434.63" width="4.39" height="11.58"/><rect class="cls-25" x="586.69" y="420.38" width="4.39" height="25.83"/><rect class="cls-26" x="595.32" y="417.7" width="4.39" height="28.5"/><rect class="cls-25" x="603.95" y="423.05" width="4.39" height="23.15"/><rect class="cls-26" x="612.57" y="417.7" width="4.39" height="28.5"/><rect class="cls-25" x="698.84" y="429.8" width="4.39" height="16.4"/><rect class="cls-25" x="707.46" y="434.63" width="4.39" height="11.58"/><rect class="cls-25" x="690.21" y="420.38" width="4.39" height="25.83"/><rect class="cls-25" x="810.98" y="429.8" width="4.39" height="16.4"/><rect class="cls-25" x="819.61" y="434.63" width="4.39" height="11.58"/><rect class="cls-26" x="828.23" y="434.63" width="4.39" height="11.58"/><rect class="cls-26" x="836.86" y="429.8" width="4.39" height="16.4"/><rect class="cls-25" x="845.49" y="434.63" width="4.39" height="11.58"/><rect class="cls-25" x="854.11" y="434.63" width="4.39" height="11.58"/><rect class="cls-25" x="802.35" y="420.38" width="4.39" height="25.83"/><rect class="cls-26" x="681.58" y="417.7" width="4.39" height="28.5"/><rect class="cls-26" x="672.96" y="423.05" width="4.39" height="23.15"/><rect class="cls-25" x="664.33" y="417.7" width="4.39" height="28.5"/><rect class="cls-26" x="621.2" y="403.26" width="4.39" height="42.94"/><rect class="cls-26" x="629.83" y="406.12" width="4.39" height="40.08"/><rect class="cls-26" x="638.45" y="413.4" width="4.39" height="32.81"/><rect class="cls-25" x="647.08" y="420.38" width="4.39" height="25.83"/><rect class="cls-26" x="655.71" y="420.38" width="4.39" height="25.83"/><rect class="cls-26" x="172.63" y="426.25" width="4.39" height="19.96"/><rect class="cls-25" x="181.25" y="420.38" width="4.39" height="25.83"/><rect class="cls-26" x="189.88" y="420.38" width="4.39" height="25.83"/><rect class="cls-26" x="198.51" y="423.66" width="4.39" height="22.55"/><rect class="cls-25" x="207.13" y="384.48" width="4.39" height="61.72"/><rect class="cls-25" x="215.76" y="366.03" width="4.39" height="80.17"/><rect class="cls-26" x="224.39" y="399.05" width="4.39" height="47.15"/><rect class="cls-26" x="233.01" y="398.17" width="4.39" height="48.04"/><rect class="cls-26" x="371.03" y="400.26" width="4.39" height="45.95"/><rect class="cls-25" x="362.41" y="413.78" width="4.39" height="32.43"/><rect class="cls-25" x="379.66" y="373.86" width="4.39" height="72.34"/><rect class="cls-26" x="388.29" y="366.37" width="4.39" height="79.83"/><rect class="cls-26" x="396.91" y="381.35" width="4.39" height="64.85"/><rect class="cls-25" x="405.54" y="366.37" width="4.39" height="79.83"/><rect class="cls-26" x="414.17" y="325.92" width="4.39" height="120.29"/><rect class="cls-26" x="422.79" y="333.93" width="4.39" height="112.27"/><rect class="cls-25" x="431.42" y="354.31" width="4.39" height="91.9"/><rect class="cls-26" x="440.05" y="373.86" width="4.39" height="72.34"/><rect class="cls-26" x="448.67" y="399.4" width="4.39" height="46.8"/><rect class="cls-26" x="457.3" y="422.29" width="4.39" height="23.92"/><rect class="cls-26" x="465.92" y="402.86" width="4.39" height="43.34"/><rect class="cls-26" x="474.55" y="402.86" width="4.39" height="43.34"/><rect class="cls-25" x="483.18" y="378.94" width="4.39" height="67.27"/><rect class="cls-26" x="526.31" y="399.4" width="4.39" height="46.8"/><rect class="cls-25" x="534.94" y="422.29" width="4.39" height="23.92"/><rect class="cls-26" x="543.56" y="402.86" width="4.39" height="43.34"/><rect class="cls-26" x="552.19" y="402.86" width="4.39" height="43.34"/><rect class="cls-26" x="560.81" y="378.94" width="4.39" height="67.27"/><rect class="cls-26" x="491.8" y="374.14" width="4.39" height="72.07"/><rect class="cls-26" x="500.43" y="352.6" width="4.39" height="93.61"/><rect class="cls-25" x="509.06" y="391.15" width="4.39" height="55.06"/><rect class="cls-26" x="517.68" y="378.94" width="4.39" height="67.27"/><rect class="cls-25" x="241.64" y="391.48" width="4.39" height="54.72"/><rect class="cls-26" x="250.26" y="403.13" width="4.39" height="43.08"/><rect class="cls-25" x="716.09" y="412.58" width="4.39" height="33.63"/><rect class="cls-26" x="724.72" y="401.11" width="4.39" height="45.09"/><rect class="cls-26" x="733.34" y="386.93" width="4.39" height="59.28"/><rect class="cls-26" x="741.97" y="398.51" width="4.39" height="47.7"/><rect class="cls-25" x="750.6" y="395.11" width="4.39" height="51.1"/><rect class="cls-26" x="759.22" y="379.83" width="4.39" height="66.38"/><rect class="cls-26" x="767.85" y="403.49" width="4.39" height="42.72"/><rect class="cls-26" x="776.47" y="417.85" width="4.39" height="28.36"/><rect class="cls-26" x="785.1" y="422.99" width="4.39" height="23.21"/><rect class="cls-25" x="793.73" y="427.93" width="4.39" height="18.27"/><rect class="cls-26" x="258.89" y="405.25" width="4.39" height="40.95"/><rect class="cls-26" x="267.52" y="420.38" width="4.39" height="25.83"/><rect class="cls-25" x="276.14" y="397.44" width="4.39" height="48.77"/><rect class="cls-25" x="284.77" y="390.07" width="4.39" height="56.14"/><rect class="cls-25" x="293.4" y="397.44" width="4.39" height="48.77"/><rect class="cls-26" x="302.02" y="386.99" width="4.39" height="59.21"/><rect class="cls-26" x="310.65" y="373.86" width="4.39" height="72.34"/><rect class="cls-25" x="319.28" y="396.58" width="4.39" height="49.63"/><rect class="cls-26" x="327.9" y="376" width="4.39" height="70.21"/><rect class="cls-26" x="336.53" y="385.21" width="4.39" height="60.99"/><rect class="cls-26" x="345.15" y="386.06" width="4.39" height="60.14"/><rect class="cls-25" x="353.78" y="373.86" width="4.39" height="72.34"/><rect class="cls-26" x="17.44" y="428.2" width="4.39" height="18"/><rect class="cls-26" x="8.82" y="433.5" width="4.39" height="12.7"/><rect class="cls-26" x="26.07" y="423.04" width="4.39" height="23.17"/><g class="cls-27"><path class="cls-2" d="M755,121l-43.15,136.2H621.76a4.76,4.76,0,0,1-4.76-4.76V125.75a4.76,4.76,0,0,1,4.76-4.76Z" transform="translate(-88.77 -33.24)"/></g><path class="cls-27" d="M717.65,283.31v36.27h-72.6l-36.16-36.06.34-.34a4.05,4.05,0,0,0,1.06.13Z" transform="translate(-88.77 -33.24)"/><path class="cls-27" d="M957.23,185.48v314H824.87L668.24,342.88H836.39a2,2,0,0,0,2-2V321.56a2,2,0,0,0-2-2H766.23V283.31H878.8a4.44,4.44,0,0,0,4.44-4.44v-165a5.85,5.85,0,0,0-1.13-3.47Z" transform="translate(-88.77 -33.24)"/><polygon class="cls-27" points="557.06 287.13 579.47 309.64 579.47 286.34 556.28 286.34 557.06 287.13"/><path class="cls-21" d="M817.86,321.66v19.25a1.79,1.79,0,0,1-1.55,2H668.84a1.79,1.79,0,0,1-1.55-2V321.66a2.36,2.36,0,0,1,.25-1.08,1.52,1.52,0,0,1,1.3-.89H816.31A1.8,1.8,0,0,1,817.86,321.66Z" transform="translate(-88.77 -33.24)"/><path class="cls-27" d="M838.37,321.56V340.9a2,2,0,0,1-2,2H816.31a1.79,1.79,0,0,0,1.55-2V321.66a1.8,1.8,0,0,0-1.55-2h-.22v-.11h20.3A2,2,0,0,1,838.37,321.56Z" transform="translate(-88.77 -33.24)"/><path class="cls-2" d="M733.07,113v.84h1.69v1.27h-1.69V117H731.6v-5.27H735V113Z" transform="translate(-88.77 -33.24)"/><path class="cls-2" d="M735.4,114.36a2.9,2.9,0,1,1,2.91,2.77A2.74,2.74,0,0,1,735.4,114.36Zm2.91,1.42a1.42,1.42,0,1,0-1.4-1.42,1.36,1.36,0,0,0,1.4,1.42Z" transform="translate(-88.77 -33.24)"/><path class="cls-2" d="M749.25,115.41a1.46,1.46,0,0,0,1.12.45,2.14,2.14,0,0,0,.75-.13v1.15a3,3,0,0,1-.85.12,2.53,2.53,0,0,1-2.44-1.57h-1l.22-.86h.55a1.55,1.55,0,0,1,0-.22.92.92,0,0,1,0-.16h-.76l.22-.86h.72a2.55,2.55,0,0,1,2.45-1.64,3.15,3.15,0,0,1,1.13.22l-.28,1.08a2.07,2.07,0,0,0-.77-.14,1.42,1.42,0,0,0-1.12.49H751l-.22.85h-1.9a.92.92,0,0,0,0,.16,1.55,1.55,0,0,0,0,.22h1.8l-.21.85Z" transform="translate(-88.77 -33.24)"/><path class="cls-2" d="M743.22,114.89c.69.61,1.43,1.41,2.17,2.21h-1c-.66-.68-1.31-1.4-2.13-2.15v-.63h.51c.9,0,1.38-.31,1.46-.78h-2v-.47h1.94c-.14-.38-.58-.6-1.31-.6h-.63v-.65h3.84v.47h-1.42a1.19,1.19,0,0,1,.43.78h1v.47h-1C745,114.35,744.29,114.84,743.22,114.89Z" transform="translate(-88.77 -33.24)"/><path class="cls-2" d="M755.54,117l-.87-1.61L753.8,117h-1.65l1.58-2.74-1.49-2.53h1.63l.79,1.49.8-1.49h1.62l-1.48,2.56,1.58,2.71Z" transform="translate(-88.77 -33.24)"/></g></g></svg>